<svg xmlns="http://www.w3.org/2000/svg" class="d-none">
  <symbol id="calendar3" viewBox="0 0 16 16">
    <path d="M14 0H2a2 2 0 0 0-2 2v12a2 2 0 0 0 2 2h12a2 2 0 0 0 2-2V2a2 2 0 0 0-2-2zM1 3.857C1 3.384 1.448 3 2 3h12c.552 0 1 .384 1 .857v10.286c0 .473-.448.857-1 .857H2c-.552 0-1-.384-1-.857V3.857z"/>
    <path d="M6.5 7a1 1 0 1 0 0-2 1 1 0 0 0 0 2zm3 0a1 1 0 1 0 0-2 1 1 0 0 0 0 2zm3 0a1 1 0 1 0 0-2 1 1 0 0 0 0 2zm-9 3a1 1 0 1 0 0-2 1 1 0 0 0 0 2zm3 0a1 1 0 1 0 0-2 1 1 0 0 0 0 2zm3 0a1 1 0 1 0 0-2 1 1 0 0 0 0 2zm3 0a1 1 0 1 0 0-2 1 1 0 0 0 0 2zm-9 3a1 1 0 1 0 0-2 1 1 0 0 0 0 2zm3 0a1 1 0 1 0 0-2 1 1 0 0 0 0 2zm3 0a1 1 0 1 0 0-2 1 1 0 0 0 0 2z"/>
  </symbol>
  <symbol id="cart" viewBox="0 0 16 16">
    <path d="M0 1.5A.5.5 0 0 1 .5 1H2a.5.5 0 0 1 .485.379L2.89 3H14.5a.5.5 0 0 1 .49.598l-1 5a.5.5 0 0 1-.465.401l-9.397.472L4.415 11H13a.5.5 0 0 1 0 1H4a.5.5 0 0 1-.491-.408L2.01 3.607 1.61 2H.5a.5.5 0 0 1-.5-.5zM3.102 4l.84 4.479 9.144-.459L13.89 4H3.102zM5 12a2 2 0 1 0 0 4 2 2 0 0 0 0-4zm7 0a2 2 0 1 0 0 4 2 2 0 0 0 0-4zm-7 1a1 1 0 1 1 0 2 1 1 0 0 1 0-2zm7 0a1 1 0 1 1 0 2 1 1 0 0 1 0-2z"/>
  </symbol>
  <symbol id="chevron-right" viewBox="0 0 16 16">
    <path fill-rule="evenodd" d="M4.646 1.646a.5.5 0 0 1 .708 0l6 6a.5.5 0 0 1 0 .708l-6 6a.5.5 0 0 1-.708-.708L10.293 8 4.646 2.354a.5.5 0 0 1 0-.708z"/>
  </symbol>
  <symbol id="door-closed" viewBox="0 0 16 16">
    <path d="M3 2a1 1 0 0 1 1-1h8a1 1 0 0 1 1 1v13h1.5a.5.5 0 0 1 0 1h-13a.5.5 0 0 1 0-1H3V2zm1 13h8V2H4v13z"/>
    <path d="M9 9a1 1 0 1 0 2 0 1 1 0 0 0-2 0z"/>
  </symbol>
  <symbol id="file-earmark" viewBox="0 0 16 16">
    <path d="M14 4.5V14a2 2 0 0 1-2 2H4a2 2 0 0 1-2-2V2a2 2 0 0 1 2-2h5.5L14 4.5zm-3 0A1.5 1.5 0 0 1 9.5 3V1H4a1 1 0 0 0-1 1v12a1 1 0 0 0 1 1h8a1 1 0 0 0 1-1V4.5h-2z"/>
  </symbol>
  <symbol id="file-earmark-text" viewBox="0 0 16 16">
    <path d="M5.5 7a.5.5 0 0 0 0 1h5a.5.5 0 0 0 0-1h-5zM5 9.5a.5.5 0 0 1 .5-.5h5a.5.5 0 0 1 0 1h-5a.5.5 0 0 1-.5-.5zm0 2a.5.5 0 0 1 .5-.5h2a.5.5 0 0 1 0 1h-2a.5.5 0 0 1-.5-.5z"/>
    <path d="M9.5 0H4a2 2 0 0 0-2 2v12a2 2 0 0 0 2 2h8a2 2 0 0 0 2-2V4.5L9.5 0zm0 1v2A1.5 1.5 0 0 0 11 4.5h2V14a1 1 0 0 1-1 1H4a1 1 0 0 1-1-1V2a1 1 0 0 1 1-1h5.5z"/>
  </symbol>
  <symbol id="gear-wide-connected" viewBox="0 0 16 16">
    <path d="M7.068.727c.243-.97 1.62-.97 1.864 0l.071.286a.96.96 0 0 0 1.622.434l.205-.211c.695-.719 1.888-.03 1.613.931l-.08.284a.96.96 0 0 0 1.187 1.187l.283-.081c.96-.275 1.65.918.931 1.613l-.211.205a.96.96 0 0 0 .434 1.622l.286.071c.97.243.97 1.62 0 1.864l-.286.071a.96.96 0 0 0-.434 1.622l.211.205c.719.695.03 1.888-.931 1.613l-.284-.08a.96.96 0 0 0-1.187 1.187l.081.283c.275.96-.918 1.65-1.613.931l-.205-.211a.96.96 0 0 0-1.622.434l-.071.286c-.243.97-1.62.97-1.864 0l-.071-.286a.96.96 0 0 0-1.622-.434l-.205.211c-.695.719-1.888.03-1.613-.931l.08-.284a.96.96 0 0 0-1.186-1.187l-.284.081c-.96.275-1.65-.918-.931-1.613l.211-.205a.96.96 0 0 0-.434-1.622l-.286-.071c-.97-.243-.97-1.62 0-1.864l.286-.071a.96.96 0 0 0 .434-1.622l-.211-.205c-.719-.695-.03-1.888.931-1.613l.284.08a.96.96 0 0 0 1.187-1.186l-.081-.284c-.275-.96.918-1.65 1.613-.931l.205.211a.96.96 0 0 0 1.622-.434l.071-.286zM12.973 8.5H8.25l-2.834 3.779A4.998 4.998 0 0 0 12.973 8.5zm0-1a4.998 4.998 0 0 0-7.557-3.779l2.834 3.78h4.723zM5.048 3.967c-.03.021-.058.043-.087.065l.087-.065zm-.431.355A4.984 4.984 0 0 0 3.002 8c0 1.455.622 2.765 1.615 3.678L7.375 8 4.617 4.322zm.344 7.646.087.065-.087-.065z"/>
  </symbol>
  <symbol id="graph-up" viewBox="0 0 16 16">
    <path fill-rule="evenodd" d="M0 0h1v15h15v1H0V0Zm14.817 3.113a.5.5 0 0 1 .07.704l-4.5 5.5a.5.5 0 0 1-.74.037L7.06 6.767l-3.656 5.027a.5.5 0 0 1-.808-.588l4-5.5a.5.5 0 0 1 .758-.06l2.609 2.61 4.15-5.073a.5.5 0 0 1 .704-.07Z"/>
  </symbol>
  <symbol id="house-fill" viewBox="0 0 16 16">
    <path d="M8.707 1.5a1 1 0 0 0-1.414 0L.646 8.146a.5.5 0 0 0 .708.708L8 2.207l6.646 6.647a.5.5 0 0 0 .708-.708L13 5.793V2.5a.5.5 0 0 0-.5-.5h-1a.5.5 0 0 0-.5.5v1.293L8.707 1.5Z"/>
    <path d="m8 3.293 6 6V13.5a1.5 1.5 0 0 1-1.5 1.5h-9A1.5 1.5 0 0 1 2 13.5V9.293l6-6Z"/>
  </symbol>
  <symbol id="list" viewBox="0 0 16 16">
    <path fill-rule="evenodd" d="M2.5 12a.5.5 0 0 1 .5-.5h10a.5.5 0 0 1 0 1H3a.5.5 0 0 1-.5-.5zm0-4a.5.5 0 0 1 .5-.5h10a.5.5 0 0 1 0 1H3a.5.5 0 0 1-.5-.5zm0-4a.5.5 0 0 1 .5-.5h10a.5.5 0 0 1 0 1H3a.5.5 0 0 1-.5-.5z"/>
  </symbol>
  <symbol id="people" viewBox="0 0 16 16">
    <path d="M15 14s1 0 1-1-1-4-5-4-5 3-5 4 1 1 1 1h8Zm-7.978-1A.261.261 0 0 1 7 12.996c.001-.264.167-1.03.76-1.72C8.312 10.629 9.282 10 11 10c1.717 0 2.687.63 3.24 1.276.593.69.758 1.457.76 1.72l-.008.002a.274.274 0 0 1-.014.002H7.022ZM11 7a2 2 0 1 0 0-4 2 2 0 0 0 0 4Zm3-2a3 3 0 1 1-6 0 3 3 0 0 1 6 0ZM6.936 9.28a5.88 5.88 0 0 0-1.23-.247A7.35 7.35 0 0 0 5 9c-4 0-5 3-5 4 0 .667.333 1 1 1h4.216A2.238 2.238 0 0 1 5 13c0-1.01.377-2.042 1.09-2.904.243-.294.526-.569.846-.816ZM4.92 10A5.493 5.493 0 0 0 4 13H1c0-.26.164-1.03.76-1.724.545-.636 1.492-1.256 3.16-1.275ZM1.5 5.5a3 3 0 1 1 6 0 3 3 0 0 1-6 0Zm3-2a2 2 0 1 0 0 4 2 2 0 0 0 0-4Z"/>
  </symbol>
  <symbol id="plus-circle" viewBox="0 0 16 16">
    <path d="M8 15A7 7 0 1 1 8 1a7 7 0 0 1 0 14zm0 1A8 8 0 1 0 8 0a8 8 0 0 0 0 16z"/>
    <path d="M8 4a.5.5 0 0 1 .5.5v3h3a.5.5 0 0 1 0 1h-3v3a.5.5 0 0 1-1 0v-3h-3a.5.5 0 0 1 0-1h3v-3A.5.5 0 0 1 8 4z"/>
  </symbol>
  <symbol id="puzzle" viewBox="0 0 16 16">
    <path d="M3.112 3.645A1.5 1.5 0 0 1 4.605 2H7a.5.5 0 0 1 .5.5v.382c0 .696-.497 1.182-.872 1.469a.459.459 0 0 0-.115.118.113.113 0 0 0-.012.025L6.5 4.5v.003l.003.01c.004.01.014.028.036.053a.86.86 0 0 0 .27.194C7.09 4.9 7.51 5 8 5c.492 0 .912-.1 1.19-.24a.86.86 0 0 0 .271-.194.213.213 0 0 0 .039-.063v-.009a.112.112 0 0 0-.012-.025.459.459 0 0 0-.115-.118c-.375-.287-.872-.773-.872-1.469V2.5A.5.5 0 0 1 9 2h2.395a1.5 1.5 0 0 1 1.493 1.645L12.645 6.5h.237c.195 0 .42-.147.675-.48.21-.274.528-.52.943-.52.568 0 .947.447 1.154.862C15.877 6.807 16 7.387 16 8s-.123 1.193-.346 1.638c-.207.415-.586.862-1.154.862-.415 0-.733-.246-.943-.52-.255-.333-.48-.48-.675-.48h-.237l.243 2.855A1.5 1.5 0 0 1 11.395 14H9a.5.5 0 0 1-.5-.5v-.382c0-.696.497-1.182.872-1.469a.459.459 0 0 0 .115-.118.113.113 0 0 0 .012-.025L9.5 11.5v-.003a.214.214 0 0 0-.039-.064.859.859 0 0 0-.27-.193C8.91 11.1 8.49 11 8 11c-.491 0-.912.1-1.19.24a.859.859 0 0 0-.271.194.214.214 0 0 0-.039.063v.003l.001.006a.113.113 0 0 0 .012.025c.016.027.05.068.115.118.375.287.872.773.872 1.469v.382a.5.5 0 0 1-.5.5H4.605a1.5 1.5 0 0 1-1.493-1.645L3.356 9.5h-.238c-.195 0-.42.147-.675.48-.21.274-.528.52-.943.52-.568 0-.947-.447-1.154-.862C.123 9.193 0 8.613 0 8s.123-1.193.346-1.638C.553 5.947.932 5.5 1.5 5.5c.415 0 .733.246.943.52.255.333.48.48.675.48h.238l-.244-2.855zM4.605 3a.5.5 0 0 0-.498.55l.001.007.29 3.4A.5.5 0 0 1 3.9 7.5h-.782c-.696 0-1.182-.497-1.469-.872a.459.459 0 0 0-.118-.115.112.112 0 0 0-.025-.012L1.5 6.5h-.003a.213.213 0 0 0-.064.039.86.86 0 0 0-.193.27C1.1 7.09 1 7.51 1 8c0 .491.1.912.24 1.19.07.14.14.225.194.271a.213.213 0 0 0 .063.039H1.5l.006-.001a.112.112 0 0 0 .025-.012.459.459 0 0 0 .118-.115c.287-.375.773-.872 1.469-.872H3.9a.5.5 0 0 1 .498.542l-.29 3.408a.5.5 0 0 0 .497.55h1.878c-.048-.166-.195-.352-.463-.557-.274-.21-.52-.528-.52-.943 0-.568.447-.947.862-1.154C6.807 10.123 7.387 10 8 10s1.193.123 1.638.346c.415.207.862.586.862 1.154 0 .415-.246.733-.52.943-.268.205-.415.39-.463.557h1.878a.5.5 0 0 0 .498-.55l-.001-.007-.29-3.4A.5.5 0 0 1 12.1 8.5h.782c.696 0 1.182.497 1.469.872.05.065.091.099.118.115.013.008.021.01.025.012a.02.02 0 0 0 .006.001h.003a.214.214 0 0 0 .064-.039.86.86 0 0 0 .193-.27c.14-.28.24-.7.24-1.191 0-.492-.1-.912-.24-1.19a.86.86 0 0 0-.194-.271.215.215 0 0 0-.063-.039H14.5l-.006.001a.113.113 0 0 0-.025.012.459.459 0 0 0-.118.115c-.287.375-.773.872-1.469.872H12.1a.5.5 0 0 1-.498-.543l.29-3.407a.5.5 0 0 0-.497-.55H9.517c.048.166.195.352.463.557.274.21.52.528.52.943 0 .568-.447.947-.862 1.154C9.193 5.877 8.613 6 8 6s-1.193-.123-1.638-.346C5.947 5.447 5.5 5.068 5.5 4.5c0-.415.246-.733.52-.943.268-.205.415-.39.463-.557H4.605z"/>
  </symbol>
  <symbol id="search" viewBox="0 0 16 16">
    <path d="M11.742 10.344a6.5 6.5 0 1 0-1.397 1.398h-.001c.03.04.062.078.098.115l3.85 3.85a1 1 0 0 0 1.415-1.414l-3.85-3.85a1.007 1.007 0 0 0-.115-.1zM12 6.5a5.5 5.5 0 1 1-11 0 5.5 5.5 0 0 1 11 0z"/>
  </symbol>
  <symbol id="appointment" viewBox="0 0 122.88 120.06">
      <path d="M69.66,4.05c0-2.23,2.2-4.05,4.94-4.05c2.74,0,4.94,1.81,4.94,4.05v17.72c0,2.23-2.2,4.05-4.94,4.05 c-2.74,0-4.94-1.81-4.94-4.05V4.05L69.66,4.05z M91.37,57.03c4.26,0,8.33,0.85,12.05,2.39c3.87,1.6,7.34,3.94,10.24,6.84 c2.9,2.9,5.24,6.38,6.84,10.23c1.54,3.72,2.39,7.79,2.39,12.05c0,4.26-0.85,8.33-2.39,12.05c-1.6,3.87-3.94,7.34-6.84,10.24 c-2.9,2.9-6.38,5.24-10.23,6.84c-3.72,1.54-7.79,2.39-12.05,2.39c-4.26,0-8.33-0.85-12.05-2.39c-3.87-1.6-7.34-3.94-10.24-6.84 c-2.9-2.9-5.24-6.38-6.84-10.24c-1.54-3.72-2.39-7.79-2.39-12.05c0-4.26,0.85-8.33,2.39-12.05c1.6-3.87,3.94-7.34,6.84-10.24 c2.9-2.9,6.38-5.24,10.23-6.84C83.04,57.88,87.1,57.03,91.37,57.03L91.37,57.03z M89.01,75.37c0-0.76,0.31-1.45,0.81-1.95l0,0l0,0 c0.5-0.5,1.19-0.81,1.96-0.81c0.77,0,1.46,0.31,1.96,0.81c0.5,0.5,0.81,1.19,0.81,1.96v14.74l11.02,6.54l0.09,0.06 c0.61,0.39,1.01,0.98,1.17,1.63c0.17,0.68,0.09,1.42-0.28,2.06l-0.02,0.03c-0.02,0.04-0.04,0.07-0.07,0.1 c-0.39,0.6-0.98,1-1.62,1.16c-0.68,0.17-1.42,0.09-2.06-0.28l-12.32-7.29c-0.43-0.23-0.79-0.58-1.05-0.99 c-0.26-0.42-0.41-0.91-0.41-1.43h0L89.01,75.37L89.01,75.37L89.01,75.37z M109.75,70.16c-2.4-2.4-5.26-4.33-8.43-5.64 c-3.06-1.27-6.42-1.96-9.95-1.96s-6.89,0.7-9.95,1.96c-3.17,1.31-6.03,3.24-8.43,5.64c-2.4,2.4-4.33,5.26-5.64,8.43 c-1.27,3.06-1.96,6.42-1.96,9.95c0,3.53,0.7,6.89,1.96,9.95c1.31,3.17,3.24,6.03,5.64,8.43c2.4,2.4,5.26,4.33,8.43,5.64 c3.06,1.27,6.42,1.96,9.95,1.96s6.89-0.7,9.95-1.96c3.17-1.31,6.03-3.24,8.43-5.64c4.71-4.71,7.61-11.2,7.61-18.38 c0-3.53-0.7-6.89-1.96-9.95C114.08,75.42,112.15,72.56,109.75,70.16L109.75,70.16z M13.45,57.36c-0.28,0-0.53-1.23-0.53-2.74 c0-1.51,0.22-2.73,0.53-2.73h13.48c0.28,0,0.53,1.23,0.53,2.73c0,1.51-0.22,2.74-0.53,2.74H13.45L13.45,57.36z M34.94,57.36 c-0.28,0-0.53-1.23-0.53-2.74c0-1.51,0.22-2.73,0.53-2.73h13.48c0.28,0,0.53,1.23,0.53,2.73c0,1.51-0.22,2.74-0.53,2.74H34.94 L34.94,57.36z M56.43,57.36c-0.28,0-0.53-1.23-0.53-2.74c0-1.51,0.22-2.73,0.53-2.73h13.48c0.28,0,0.53,1.22,0.53,2.72 c-1.35,0.84-2.65,1.76-3.89,2.75H56.43L56.43,57.36z M13.48,73.04c-0.28,0-0.53-1.23-0.53-2.74c0-1.51,0.22-2.74,0.53-2.74h13.48 c0.28,0,0.53,1.23,0.53,2.74c0,1.51-0.22,2.74-0.53,2.74H13.48L13.48,73.04z M34.97,73.04c-0.28,0-0.53-1.23-0.53-2.74 c0-1.51,0.22-2.74,0.53-2.74h13.48c0.28,0,0.53,1.23,0.53,2.74c0,1.51-0.22,2.74-0.53,2.74H34.97L34.97,73.04z M13.51,88.73 c-0.28,0-0.53-1.23-0.53-2.74c0-1.51,0.22-2.74,0.53-2.74h13.48c0.28,0,0.53,1.23,0.53,2.74c0,1.51-0.22,2.74-0.53,2.74H13.51 L13.51,88.73z M35,88.73c-0.28,0-0.53-1.23-0.53-2.74c0-1.51,0.22-2.74,0.53-2.74h13.48c0.28,0,0.53,1.23,0.53,2.74 c0,1.51-0.22,2.74-0.53,2.74H35L35,88.73z M25.29,4.05c0-2.23,2.2-4.05,4.94-4.05c2.74,0,4.94,1.81,4.94,4.05v17.72 c0,2.23-2.21,4.05-4.94,4.05c-2.74,0-4.94-1.81-4.94-4.05V4.05L25.29,4.05z M5.44,38.74h94.08v-20.4c0-0.7-0.28-1.31-0.73-1.76 c-0.45-0.45-1.09-0.73-1.76-0.73h-9.02c-1.51,0-2.74-1.23-2.74-2.74c0-1.51,1.23-2.74,2.74-2.74h9.02c2.21,0,4.19,0.89,5.64,2.34 c1.45,1.45,2.34,3.43,2.34,5.64v32.39c-1.8-0.62-3.65-1.12-5.55-1.49v-5.06h0.06H5.44v52.83c0,0.7,0.28,1.31,0.73,1.76 c0.45,0.45,1.09,0.73,1.76,0.73h44.71c0.51,1.9,1.15,3.75,1.92,5.53H7.98c-2.2,0-4.19-0.89-5.64-2.34C0.89,101.26,0,99.28,0,97.07 V18.36c0-2.2,0.89-4.19,2.34-5.64c1.45-1.45,3.43-2.34,5.64-2.34h9.63c1.51,0,2.74,1.23,2.74,2.74c0,1.51-1.23,2.74-2.74,2.74H7.98 c-0.7,0-1.31,0.28-1.76,0.73c-0.45,0.45-0.73,1.09-0.73,1.76v20.4H5.44L5.44,38.74z M43.07,15.85c-1.51,0-2.74-1.23-2.74-2.74 c0-1.51,1.23-2.74,2.74-2.74h18.36c1.51,0,2.74,1.23,2.74,2.74c0,1.51-1.23,2.74-2.74,2.74H43.07L43.07,15.85z"/>
  </symbol>
  <!-- <symbol id="cuprank"  viewBox="0 0 324.701 324.701" >
  <path d="M242.538,154.438c12.071-1.032,22.667-6.11,31.544-15.153c30.51-31.08,29.583-100.347,29.529-103.28 c-0.1-5.447-4.543-9.81-9.992-9.814l-50.269-0.033V5c0-2.762-2.239-5-5-5h-152c-2.761,0-5,2.238-5,5v21.156L31.082,26.19 c-5.448,0.004-9.891,4.367-9.992,9.814c-0.055,2.934-0.981,72.2,29.529,103.28c8.877,9.043,19.474,14.121,31.544,15.153 c4.617,32.323,28.831,58.395,60.188,65.782v62.933h-25.333c-1.635,0-3.166,0.799-4.101,2.14l-22,31.549 c-1.066,1.528-1.193,3.522-0.331,5.174c0.861,1.651,2.57,2.686,4.433,2.686c0,0,134.678-0.001,134.686,0c2.761,0,5-2.238,5-5 c0-1.21-0.507-2.195-1.145-3.184l-21.774-31.226c-0.935-1.341-2.466-2.14-4.101-2.14h-25.333V220.22 C213.707,212.832,237.921,186.761,242.538,154.438z M283.457,46.183c-0.965,22.133-6.193,61.311-23.647,79.091 c-4.822,4.911-10.247,7.849-16.459,8.91V46.156L283.457,46.183z M41.253,46.183l40.097-0.026v88.027 c-6.207-1.061-11.626-3.991-16.444-8.894C47.486,107.563,42.236,68.339,41.253,46.183z M120.917,83.455l28.63-4.16l12.804-25.943 l12.804,25.943l28.63,4.16l-20.717,20.194l4.891,28.515l-25.607-13.463l-25.607,13.463l4.891-28.515L120.917,83.455z"/>
  </symbol> -->
  <symbol id="cuprank" viewBox="0 0 324.701 324.701">
  <path d="M242.538,154.438c12.071-1.032,22.667-6.11,31.544-15.153c30.51-31.08,29.583-100.347,29.529-103.28 c-0.1-5.447-4.543-9.81-9.992-9.814l-50.269-0.033V5c0-2.762-2.239-5-5-5h-152c-2.761,0-5,2.238-5,5v21.156L31.082,26.19 c-5.448,0.004-9.891,4.367-9.992,9.814c-0.055,2.934-0.981,72.2,29.529,103.28c8.877,9.043,19.474,14.121,31.544,15.153 c4.617,32.323,28.831,58.395,60.188,65.782v62.933h-25.333c-1.635,0-3.166,0.799-4.101,2.14l-22,31.549 c-1.066,1.528-1.193,3.522-0.331,5.174c0.861,1.651,2.57,2.686,4.433,2.686c0,0,134.678-0.001,134.686,0c2.761,0,5-2.238,5-5 c0-1.21-0.507-2.195-1.145-3.184l-21.774-31.226c-0.935-1.341-2.466-2.14-4.101-2.14h-25.333V220.22 C213.707,212.832,237.921,186.761,242.538,154.438z M283.457,46.183c-0.965,22.133-6.193,61.311-23.647,79.091 c-4.822,4.911-10.247,7.849-16.459,8.91V46.156L283.457,46.183z M41.253,46.183l40.097-0.026v88.027 c-6.207-1.061-11.626-3.991-16.444-8.894C47.486,107.563,42.236,68.339,41.253,46.183z M120.917,83.455l28.63-4.16l12.804-25.943 l12.804,25.943l28.63,4.16l-20.717,20.194l4.891,28.515l-25.607-13.463l-25.607,13.463l-4.891-28.515L120.917,83.455z"  />
</symbol>

</svg>